<svg width="1995" height="1080" viewBox="0 0 1995 1080" fill="none" xmlns="http://www.w3.org/2000/svg">
<g opacity="0.6">
<path fill-rule="evenodd" clip-rule="evenodd" d="M790.73 0L1363.97 1.47541L1581.7 382.131C1701.78 591.639 1800.32 764.852 1801.21 767.213C1802.09 769.574 1764.03 838.918 1625.07 1080H217.782L211.882 1070.26C208.637 1065.25 203.031 1055.51 193 1037.21L210.407 1006.23C219.848 989.115 233.124 966.689 239.91 956.066C246.695 945.443 293.31 865.18 343.76 777.541C394.21 689.902 437.579 613.771 440.235 608.459C444.365 599.902 444.955 576.885 444.955 153.443H701.631L708.417 142.23C712.252 136.328 732.314 101.803 752.966 65.5082L790.73 0ZM806.956 136.623C789.845 166.131 671.833 371.803 544.38 593.41L312.782 996.197C477.703 997.377 500.421 996.787 503.076 993.836C505.141 991.77 623.153 787.574 765.357 540.295C907.561 292.721 1024.69 88.5246 1025.28 86.459C1026.16 83.5082 1006.1 82.918 932.049 82.918H837.935L806.956 136.623ZM861.242 537.344C717.562 787.279 599.551 992.951 599.256 994.426C598.961 996.197 634.659 997.377 694.55 997.377H790.435C1191.38 298.623 1309.39 92.9508 1311.46 89.4098L1315.59 82.623L1122.34 82.918L861.242 537.344ZM1268.09 329.016C1536.27 795.541 1614.16 931.279 1614.45 931.869C1614.75 932.164 1635.69 896.754 1661.36 852.787C1687.03 809.115 1707.39 771.344 1707.09 769.279C1706.8 766.918 1629.79 630.885 1536.27 466.82C1442.74 302.459 1364.86 168.197 1363.38 168.197C1361.61 168.197 1339.48 204.492 1314.11 248.459L1268.09 329.016ZM524.908 347.607C524.908 412.525 525.793 457.672 527.563 455.902C528.744 454.426 557.656 405.148 591.29 346.721C624.923 288.295 652.951 239.607 653.541 238.426C654.131 237.246 625.513 236.066 589.815 236.066H524.908V347.607ZM896.055 977.607L884.844 997.672C1493.49 997.672 1554.56 997.082 1553.97 993.836C1553.38 991.77 1479.62 861.934 1389.64 705.246C1299.66 548.852 1224.72 419.311 1222.95 417.246C1220.59 414.59 1180.76 481.279 1063.34 685.475C977.483 835.082 901.956 966.393 896.055 977.607Z" fill="url(#paint0_linear_414_45)"/>
</g>
<defs>
<linearGradient id="paint0_linear_414_45" x1="1802.15" y1="1081.42" x2="193.168" y2="-0.267401" gradientUnits="userSpaceOnUse">
<stop stop-color="#6CBE50"/>
<stop offset="1" stop-color="#FFF3C4"/>
</linearGradient>
</defs>
</svg>
