<svg width="1995" height="1080" viewBox="0 0 1995 1080" fill="none" xmlns="http://www.w3.org/2000/svg">
<g clip-path="url(#clip0_414_45)">
<g opacity="0.6">
<path fill-rule="evenodd" clip-rule="evenodd" d="M1412.73 0L1985.97 1.47541L2203.7 382.131C2323.78 591.639 2422.32 764.852 2423.21 767.213C2424.09 769.574 2386.03 838.918 2247.07 1080H839.782L833.882 1070.26C830.637 1065.25 825.031 1055.51 815 1037.21L832.407 1006.23C841.848 989.115 855.124 966.689 861.91 956.066C868.695 945.443 915.31 865.18 965.76 777.541C1016.21 689.902 1059.58 613.77 1062.23 608.459C1066.37 599.902 1066.96 576.885 1066.96 153.443H1323.63L1330.42 142.23C1334.25 136.328 1354.31 101.803 1374.97 65.5082L1412.73 0ZM1428.96 136.623C1411.84 166.131 1293.83 371.803 1166.38 593.41L934.782 996.197C1099.7 997.377 1122.42 996.787 1125.08 993.836C1127.14 991.77 1245.15 787.574 1387.36 540.295C1529.56 292.721 1646.69 88.5246 1647.28 86.459C1648.16 83.5082 1628.1 82.918 1554.05 82.918H1459.93L1428.96 136.623ZM1483.24 537.344C1339.56 787.279 1221.55 992.951 1221.26 994.426C1220.96 996.197 1256.66 997.377 1316.55 997.377H1412.43C1813.38 298.623 1931.39 92.9508 1933.46 89.4098L1937.59 82.623L1744.34 82.918L1483.24 537.344ZM1890.09 329.016C2158.27 795.541 2236.16 931.279 2236.45 931.869C2236.75 932.164 2257.69 896.754 2283.36 852.787C2309.03 809.115 2329.39 771.344 2329.09 769.279C2328.8 766.918 2251.79 630.885 2158.27 466.82C2064.74 302.459 1986.86 168.197 1985.38 168.197C1983.61 168.197 1961.48 204.492 1936.11 248.459L1890.09 329.016ZM1146.91 347.607C1146.91 412.525 1147.79 457.672 1149.56 455.902C1150.74 454.426 1179.66 405.148 1213.29 346.721C1246.92 288.295 1274.95 239.607 1275.54 238.426C1276.13 237.246 1247.51 236.066 1211.81 236.066H1146.91V347.607ZM1518.06 977.607L1506.84 997.672C2115.49 997.672 2176.56 997.082 2175.97 993.836C2175.38 991.77 2101.62 861.934 2011.64 705.246C1921.66 548.852 1846.72 419.311 1844.95 417.246C1842.59 414.59 1802.76 481.279 1685.34 685.475C1599.48 835.082 1523.96 966.393 1518.06 977.607Z" fill="url(#paint0_linear_414_45)"/>
</g>
</g>
<defs>
<linearGradient id="paint0_linear_414_45" x1="2424.15" y1="1081.42" x2="815.168" y2="-0.267401" gradientUnits="userSpaceOnUse">
<stop stop-color="#6CBE50"/>
<stop offset="1" stop-color="#FFF3C4"/>
</linearGradient>
<clipPath id="clip0_414_45">
<rect width="1995" height="1080" fill="white"/>
</clipPath>
</defs>
</svg>
