<svg width="85" height="57" viewBox="0 0 85 57" fill="none" xmlns="http://www.w3.org/2000/svg">
<path fill-rule="evenodd" clip-rule="evenodd" d="M31.5611 0L61.3479 0.0766659L72.6616 19.8565C78.901 30.743 84.0213 39.7436 84.0673 39.8663C84.1133 39.9889 82.1357 43.5922 74.9152 56.1195H1.7897L1.48309 55.6135C1.31446 55.3528 1.02318 54.8468 0.501953 53.8961L1.40644 52.2862C1.89701 51.3968 2.58687 50.2315 2.93947 49.6795C3.29207 49.1275 5.71425 44.9569 8.33573 40.4029C10.9572 35.849 13.2108 31.893 13.3487 31.617C13.5634 31.1724 13.594 29.9764 13.594 7.97326H26.9314L27.284 7.3906C27.4833 7.08393 28.5257 5.28995 29.5988 3.40397L31.5611 0ZM32.4043 7.09926C31.5151 8.63258 25.383 19.3198 18.7603 30.835L6.72605 51.7648C15.2957 51.8262 16.4761 51.7955 16.6141 51.6422C16.7214 51.5348 22.8535 40.9243 30.2427 28.0751C37.6319 15.2105 43.718 4.59996 43.7487 4.49262C43.7947 4.33929 42.7522 4.30862 38.9043 4.30862H34.014L32.4043 7.09926ZM35.2251 27.9217C27.7592 40.9089 21.6271 51.5962 21.6118 51.6728C21.5964 51.7648 23.4514 51.8262 26.5634 51.8262H31.5458C52.3796 15.5172 58.5118 4.82995 58.6191 4.64595L58.8337 4.29329L48.7924 4.30862L35.2251 27.9217ZM56.3655 17.0965C70.3007 41.3383 74.3479 48.3915 74.3633 48.4222C74.3786 48.4375 75.4671 46.5975 76.8008 44.3129C78.1345 42.0436 79.1923 40.0809 79.177 39.9736C79.1617 39.8509 75.1604 32.7823 70.3007 24.2571C65.441 15.7165 61.3939 8.73992 61.3172 8.73992C61.2252 8.73992 60.0754 10.6259 58.757 12.9105L56.3655 17.0965ZM17.7485 18.0625C17.7485 21.4358 17.7945 23.7818 17.8865 23.6898C17.9478 23.6131 19.4502 21.0525 21.1978 18.0165C22.9455 14.9805 24.4019 12.4505 24.4325 12.3892C24.4632 12.3279 22.9762 12.2665 21.1212 12.2665H17.7485V18.0625ZM37.034 50.7988L36.4515 51.8415C68.0779 51.8415 71.2512 51.8108 71.2206 51.6422C71.1899 51.5348 67.3573 44.7882 62.6816 36.6463C58.0059 28.5197 54.112 21.7885 54.02 21.6811C53.8973 21.5431 51.8278 25.0084 45.7263 35.619C41.2652 43.3929 37.3406 50.2162 37.034 50.7988Z" fill="url(#paint0_linear_234_2)"/>
<defs>
<linearGradient id="paint0_linear_234_2" x1="84.1162" y1="56.1932" x2="0.510107" y2="-0.0130228" gradientUnits="userSpaceOnUse">
<stop stop-color="#6CBE50"/>
<stop offset="1" stop-color="#FFF3C4"/>
</linearGradient>
</defs>
</svg>
