<svg width="148" height="81" viewBox="0 0 148 81" fill="none" xmlns="http://www.w3.org/2000/svg">
<path d="M144.968 73.8157C145.081 73.6231 145.376 73.3625 145.625 73.2378C145.942 73.0792 146.203 73.0338 146.475 73.0792C146.69 73.1132 146.985 73.2151 147.121 73.3058C147.268 73.3965 147.483 73.6458 147.608 73.8497C147.732 74.0424 147.834 74.3823 147.834 74.5863C147.834 74.779 147.755 75.1303 147.664 75.3456C147.574 75.5609 147.325 75.8442 147.132 75.9688C146.917 76.0935 146.554 76.1955 146.305 76.1955C146.056 76.1955 145.693 76.0935 145.489 75.9688C145.285 75.8442 145.036 75.5949 144.945 75.4022C144.855 75.2209 144.775 74.8583 144.775 74.609C144.775 74.3597 144.866 73.9971 144.968 73.8157Z" fill="#2B3D52"/>
<path fill-rule="evenodd" clip-rule="evenodd" d="M134.84 71.6602C135.26 71.6602 135.769 71.7281 135.973 71.8075C136.166 71.8868 136.517 72.0908 136.732 72.2494C136.948 72.4081 137.276 72.816 137.458 73.156C137.684 73.5526 137.809 73.9946 137.922 75.1731H132.88L132.948 75.4224C132.994 75.5697 133.084 75.8077 133.164 75.9663C133.243 76.125 133.447 76.3856 133.628 76.5443C133.809 76.7029 134.217 76.8842 134.523 76.9635C134.84 77.0315 135.192 77.0655 135.316 77.0429C135.441 77.0202 135.679 76.9749 135.86 76.9409C136.03 76.9069 136.336 76.7256 136.902 76.2043L137.582 76.8729L137.242 77.2128C137.05 77.4055 136.653 77.6661 136.336 77.7908C135.871 77.9948 135.599 78.0288 134.863 77.9834C134.149 77.9494 133.843 77.8814 133.447 77.6548C133.164 77.4848 132.767 77.1562 132.563 76.9182C132.359 76.6802 132.11 76.2156 132.019 75.9097C131.883 75.513 131.849 75.1051 131.883 74.5498C131.917 74.0739 132.031 73.5753 132.167 73.3033C132.291 73.054 132.574 72.68 132.778 72.4647C132.994 72.2494 133.368 71.9888 133.617 71.8755C133.911 71.7395 134.342 71.6602 134.84 71.6602V71.6602ZM133.424 73.1333C133.322 73.292 133.152 73.5979 133.062 73.8132C132.96 74.0285 132.926 74.2552 132.971 74.3005C133.016 74.3458 133.9 74.3798 134.954 74.3798C136.132 74.3798 136.846 74.3345 136.846 74.2665C136.846 74.2099 136.778 73.9832 136.687 73.7906C136.608 73.5866 136.393 73.2806 136.211 73.1107C136.03 72.9407 135.747 72.748 135.577 72.6914C135.396 72.6234 135.067 72.5667 134.84 72.5667C134.602 72.5781 134.229 72.6347 134.013 72.714C133.798 72.7934 133.537 72.986 133.424 73.1333Z" fill="#2B3D52"/>
<path d="M127.057 75.7205C126.502 74.4514 125.89 73.0235 125.686 72.5362L125.312 71.6523L126.434 71.7203L127.476 74.1227C128.054 75.4486 128.553 76.4911 128.598 76.4458C128.632 76.4005 129.131 75.3239 130.694 71.7203L131.215 71.6863C131.68 71.6637 131.736 71.6863 131.691 71.8563C131.657 71.9696 131.057 73.3861 129.063 77.9529L128.066 78.0209L127.057 75.7205Z" fill="#2B3D52"/>
<path fill-rule="evenodd" clip-rule="evenodd" d="M122.006 71.6602C122.414 71.6602 122.935 71.7168 123.173 71.7735C123.4 71.8415 123.808 72.0568 124.068 72.2608C124.363 72.4874 124.691 72.8953 124.895 73.3033C125.19 73.8699 125.235 74.0852 125.235 74.8218C125.224 75.4337 125.156 75.8303 124.997 76.193C124.873 76.4763 124.59 76.8842 124.374 77.0995C124.159 77.3148 123.785 77.5981 123.536 77.7228C123.275 77.8361 122.765 77.9608 122.346 77.9834C121.938 78.0061 121.395 77.9721 121.123 77.9041C120.862 77.8361 120.432 77.6095 120.182 77.4168C119.922 77.2128 119.548 76.7596 119.367 76.4196C119.129 75.989 119.004 75.5924 118.97 75.1164C118.936 74.6858 118.981 74.2099 119.095 73.8132C119.197 73.4733 119.446 72.986 119.661 72.7367C119.865 72.4874 120.318 72.1474 120.658 71.9661C121.145 71.7281 121.429 71.6602 122.006 71.6602ZM121.009 72.884C120.873 72.9633 120.635 73.19 120.477 73.394C120.33 73.5866 120.16 73.9832 120.103 74.2665C120.035 74.5725 120.035 75.0031 120.103 75.3431C120.16 75.6604 120.33 76.0796 120.477 76.2836C120.635 76.4763 120.93 76.7256 121.134 76.8276C121.327 76.9409 121.757 77.0202 122.063 77.0202C122.403 77.0315 122.811 76.9409 123.071 76.8049C123.321 76.6916 123.649 76.3856 123.808 76.1476C124.023 75.819 124.114 75.5017 124.148 75.0144C124.182 74.4818 124.125 74.1985 123.944 73.7906C123.796 73.4393 123.547 73.1447 123.287 72.9633C123.049 72.816 122.629 72.6574 122.346 72.6347C122.063 72.6007 121.712 72.612 121.553 72.6687C121.395 72.714 121.157 72.816 121.021 72.884H121.009Z" fill="#2B3D52"/>
<path d="M107.502 78.0061V74.8331V71.6602H108.012C108.522 71.6602 108.522 71.6602 108.522 72.4534L109.043 72.0794C109.485 71.7621 109.677 71.7168 110.368 71.6828C110.912 71.6488 111.343 71.6942 111.637 71.8075C111.887 71.9095 112.226 72.1361 112.714 72.68L113.155 72.3061C113.393 72.1134 113.79 71.8755 114.028 71.8075C114.266 71.7281 114.764 71.6602 115.115 71.6602C115.478 71.6602 115.965 71.7395 116.192 71.8415C116.43 71.9321 116.724 72.1021 116.838 72.2041C116.951 72.3061 117.166 72.646 117.313 72.9633C117.563 73.4959 117.585 73.6546 117.585 78.0061H116.566V76.1363C116.566 75.1051 116.509 74.0512 116.452 73.7792C116.384 73.5186 116.226 73.19 116.078 73.0427C115.943 72.9067 115.625 72.748 115.376 72.68C115.093 72.6234 114.753 72.6234 114.47 72.68C114.22 72.748 113.892 72.9067 113.756 73.0427C113.609 73.19 113.405 73.4619 113.303 73.6433C113.155 73.9152 113.11 74.3912 113.053 78.0061H112.034V75.9323C112.034 74.1985 112 73.8132 111.83 73.4846C111.728 73.2693 111.501 72.986 111.331 72.8614C111.093 72.6914 110.867 72.6347 110.368 72.646C109.926 72.6687 109.621 72.7367 109.428 72.884C109.269 72.9973 109.031 73.2693 108.884 73.4846C108.646 73.8472 108.624 73.9719 108.635 78.0061H107.502Z" fill="#2B3D52"/>
<path d="M104.443 78.0061V74.8331V71.6602H105.576V78.0061H104.443Z" fill="#2B3D52"/>
<path fill-rule="evenodd" clip-rule="evenodd" d="M97.021 71.6602C97.3948 71.6602 97.9047 71.7168 98.1539 71.7848C98.4598 71.8641 98.7997 72.1134 99.2076 72.5214C99.6381 72.9747 99.842 73.292 99.9667 73.7339C100.057 74.0512 100.137 74.5158 100.137 75.1731H97.6441C96.0579 75.1731 95.1516 75.2184 95.1516 75.2864C95.1516 75.3431 95.2082 75.5357 95.2762 75.717C95.3328 75.887 95.5254 76.1703 95.6954 76.3403C95.8653 76.5216 96.1599 76.7482 96.3412 76.8389C96.5338 76.9409 96.9756 77.0202 97.3608 77.0202C97.7347 77.0202 98.1652 76.9522 98.3239 76.8729C98.4825 76.7936 98.7317 76.6122 99.1736 76.1816L99.7854 76.9295L99.4795 77.2468C99.3095 77.4168 98.913 77.6661 98.6071 77.7908C98.1426 77.9948 97.882 78.0288 97.1343 77.9834C96.5111 77.9494 96.0806 77.8588 95.7747 77.7001C95.5254 77.5641 95.1629 77.2922 94.9703 77.0769C94.7664 76.8729 94.5171 76.5216 94.4038 76.3063C94.2792 76.057 94.1885 75.5584 94.1546 75.0031C94.1206 74.3232 94.1546 73.9719 94.3132 73.5866C94.4151 73.3033 94.6417 72.8953 94.8117 72.68C94.9816 72.4647 95.3895 72.1474 95.7294 71.9661C96.1939 71.7281 96.4998 71.6602 97.021 71.6602V71.6602ZM95.854 73.054C95.7067 73.19 95.4801 73.4959 95.3668 73.7339C95.2535 73.9606 95.1516 74.2099 95.1516 74.2665C95.1516 74.3345 95.888 74.3798 97.1343 74.3798H99.1169C99.0036 73.9832 98.913 73.7452 98.8337 73.5866C98.7544 73.428 98.5618 73.19 98.4145 73.054C98.2785 72.918 98.018 72.7594 97.8367 72.6914C97.6667 72.6234 97.3382 72.5667 97.1003 72.5781C96.8737 72.5781 96.5564 72.6347 96.3978 72.6914C96.2392 72.7594 95.99 72.918 95.854 73.054Z" fill="#2B3D52"/>
<path fill-rule="evenodd" clip-rule="evenodd" d="M79.6879 71.7003C80.4357 71.7229 80.6963 71.7909 81.1381 72.0402C81.4327 72.2102 81.8292 72.5615 82.0218 72.8335C82.2031 73.0941 82.441 73.5927 82.543 73.9327C82.6639 74.3482 82.7016 74.7637 82.6563 75.1792C82.611 75.5192 82.4637 76.0631 82.3051 76.3691C82.1578 76.6864 81.8406 77.1056 81.6026 77.3096C81.3534 77.5023 80.9342 77.7516 80.651 77.8422C80.3677 77.9329 79.8579 78.0122 79.518 78.0122C79.1781 78.0122 78.6683 77.9329 78.385 77.8309C78.1018 77.7402 77.6826 77.4909 77.4333 77.2983C77.1954 77.0943 76.8669 76.6524 76.6969 76.3124C76.459 75.7911 76.4023 75.5305 76.4023 74.7826C76.4137 73.9893 76.4477 73.7967 76.7422 73.2641C76.9348 72.9241 77.2634 72.5048 77.4787 72.3349C77.6939 72.1536 78.0791 71.9269 78.3284 71.8363C78.623 71.7343 79.0988 71.6776 79.6879 71.7003ZM78.1131 73.1168C77.9998 73.2188 77.8072 73.5021 77.6939 73.74C77.558 74.012 77.4787 74.3973 77.4787 74.8166C77.4787 75.1905 77.5693 75.6551 77.6826 75.9158C77.7959 76.1651 78.0338 76.4824 78.2264 76.607C78.4077 76.743 78.7589 76.913 79.0082 76.9697C79.2914 77.049 79.6426 77.0603 79.9712 76.9923C80.2544 76.9357 80.6056 76.7997 80.7643 76.675C80.9229 76.5617 81.1608 76.2444 81.3081 75.9611C81.478 75.6098 81.5573 75.2699 81.5573 74.8166C81.5573 74.3973 81.478 74.0007 81.3421 73.74C81.2288 73.5021 81.0362 73.2188 80.9229 73.1168C80.7982 73.0148 80.515 72.8448 80.2884 72.7542C80.0505 72.6522 79.7219 72.5728 79.552 72.5728C79.3707 72.5842 79.0308 72.6522 78.7816 72.7542C78.5323 72.8448 78.2377 73.0035 78.1131 73.1168Z" fill="#2B3D52"/>
<path fill-rule="evenodd" clip-rule="evenodd" d="M72.6176 71.7003C73.4446 71.723 73.6486 71.7683 74.0338 72.0176C74.2944 72.1876 74.5776 72.5163 74.7249 72.8109C74.9628 73.2755 74.9855 73.4568 74.9855 78.0123H74.4756C74.0111 78.0123 73.9658 77.9896 73.9658 77.729C73.9658 77.5703 73.9545 77.4457 73.9318 77.4457C73.9205 77.4457 73.6486 77.5703 73.3427 77.729C72.9008 77.9556 72.6062 78.0123 72.0398 78.0123C71.5866 78.0123 71.1334 77.933 70.8501 77.8083C70.6009 77.695 70.2723 77.423 70.1137 77.2077C69.9324 76.9584 69.8305 76.6298 69.7965 76.2558C69.7738 75.8479 69.8191 75.5759 69.9778 75.2926C70.1024 75.066 70.4083 74.7713 70.6915 74.6127C71.1221 74.3747 71.3826 74.3294 73.9885 74.2161L73.9205 73.7628C73.8752 73.4681 73.7392 73.2075 73.5126 73.0035C73.32 72.8222 72.9801 72.6522 72.7422 72.6182C72.5156 72.5729 72.0624 72.5956 71.7565 72.6749C71.4393 72.7429 70.9974 72.9242 70.3403 73.3662L70.1137 72.9695C69.9891 72.7542 69.8871 72.5503 69.8871 72.5163C69.8871 72.4823 70.0797 72.3463 70.3063 72.2103C70.5442 72.0743 70.9408 71.893 71.19 71.8137C71.4506 71.7343 72.0624 71.6777 72.6176 71.7003ZM71.0201 75.6099C70.8388 75.8365 70.7935 76.0065 70.8388 76.2558C70.8841 76.4485 71.0201 76.6978 71.1447 76.8224C71.3033 76.9811 71.5639 77.0604 72.0171 77.0944C72.4816 77.1284 72.7875 77.0717 73.1047 76.9244C73.354 76.7998 73.6486 76.5618 73.7619 76.3691C73.8752 76.1878 73.9658 75.8365 73.9658 75.6099V75.1793C72.255 75.2019 71.6432 75.2359 71.5073 75.2586C71.3713 75.2813 71.1447 75.4399 71.0201 75.6099Z" fill="#2B3D52"/>
<path fill-rule="evenodd" clip-rule="evenodd" d="M59.3535 71.6602C59.9313 71.6602 60.3505 71.7281 60.6564 71.8755C60.9056 71.9775 61.2455 72.2381 61.4268 72.4307C61.5967 72.6347 61.778 72.986 61.846 73.2126C61.9026 73.4506 61.9593 74.6291 61.9593 78.0061H61.4495C60.951 78.0061 60.9396 77.9948 60.9396 77.6435C60.951 77.2922 60.9396 77.2808 60.747 77.4622C60.6337 77.5641 60.3505 77.7341 60.1239 77.8248C59.886 77.9268 59.3761 78.0061 58.9796 78.0061C58.4698 78.0061 58.1299 77.9381 57.7673 77.7568C57.4841 77.6095 57.1442 77.3148 56.9969 77.0995C56.8156 76.8162 56.7363 76.5329 56.7363 76.1363C56.7363 75.7397 56.8156 75.4564 56.9969 75.1731C57.1442 74.9578 57.4614 74.6745 57.7107 74.5498C58.0619 74.3798 58.4584 74.3232 60.8263 74.2665V73.8132C60.8263 73.4733 60.747 73.2806 60.5091 73.0313C60.3278 72.8387 60.0219 72.6687 59.75 72.6234C59.4894 72.578 59.0589 72.5894 58.7303 72.6574C58.4131 72.7367 57.9713 72.918 57.3141 73.36L57.0875 72.9973C56.9629 72.7934 56.861 72.6007 56.861 72.5667C56.8496 72.5327 56.9176 72.4534 56.9969 72.3741C57.0762 72.2947 57.4501 72.1021 57.824 71.9548C58.3451 71.7281 58.7077 71.6602 59.3535 71.6602V71.6602ZM57.8466 75.6604C57.8013 75.7623 57.7673 75.9777 57.7673 76.1363C57.7673 76.295 57.8013 76.4989 57.8466 76.6009C57.9033 76.7029 58.0732 76.8616 58.2432 76.9409C58.4244 77.0315 58.8097 77.0995 59.1269 77.0995C59.4441 77.0995 59.852 77.0202 60.0333 76.9295C60.2145 76.8389 60.4751 76.6236 60.5997 76.4536C60.7583 76.2496 60.8377 75.9663 60.8263 75.6604V75.1731C59.0929 75.1844 58.4698 75.2411 58.2772 75.3317C58.0959 75.4111 57.9033 75.5584 57.8466 75.6604Z" fill="#2B3D52"/>
<path d="M50.8535 72.6234V72.1474V71.6602H55.8386V72.0001C55.8386 72.2608 55.4534 72.8387 54.0825 74.6065C53.1195 75.853 52.3264 76.8955 52.3264 76.9295C52.3264 76.9635 53.1195 76.9862 55.8386 76.9862V78.0061H50.7402V77.6435C50.7402 77.3375 51.0461 76.8955 52.3377 75.2297C53.2214 74.1079 54.0485 73.0427 54.4224 72.5327L50.8535 72.6234Z" fill="#2B3D52"/>
<path d="M48.3613 78.0061V74.8331V71.6602H49.4943V78.0061H48.3613Z" fill="#2B3D52"/>
<path d="M43.9453 78.0061V74.8331V71.6602H44.965L44.9537 72.5101L45.2142 72.2608C45.3615 72.1248 45.6674 71.9321 45.894 71.8415C46.1319 71.7395 46.5285 71.6602 47.2309 71.6602V72.6234L46.6418 72.7027C46.3132 72.7367 45.9167 72.8727 45.7581 72.9973C45.5994 73.1107 45.3728 73.3826 45.2482 73.5979C45.0443 73.9379 45.0216 74.2212 44.965 78.0061H43.9453Z" fill="#2B3D52"/>
<path fill-rule="evenodd" clip-rule="evenodd" d="M39.4121 71.6602C39.9899 71.6602 40.4091 71.7281 40.715 71.8755C40.9642 71.9775 41.3041 72.2381 41.4854 72.4307C41.6553 72.6347 41.8366 72.986 41.9046 73.2126C41.9612 73.4506 42.0179 74.6291 42.0179 78.0061H41.5081C41.0095 78.0061 40.9982 77.9948 40.9982 77.6435C41.0095 77.2922 40.9982 77.2808 40.8056 77.4622C40.6923 77.5641 40.4091 77.7341 40.1825 77.8248C39.9446 77.9268 39.4347 78.0061 39.0382 78.0061C38.5284 78.0061 38.1885 77.9381 37.8259 77.7568C37.5427 77.6095 37.2028 77.3148 37.0555 77.0995C36.8742 76.8162 36.7949 76.5329 36.7949 76.1363C36.7949 75.7397 36.8742 75.4564 37.0555 75.1731C37.2028 74.9578 37.52 74.6745 37.7693 74.5498C38.1205 74.3798 38.517 74.3232 40.8849 74.2665V73.8132C40.8849 73.4733 40.8056 73.2806 40.5677 73.0313C40.3864 72.8387 40.0805 72.6687 39.8086 72.6234C39.548 72.578 39.1175 72.5894 38.7889 72.6574C38.4717 72.7367 38.0299 72.918 37.3727 73.36L37.1461 72.9973C37.0215 72.7934 36.9195 72.6007 36.9195 72.5667C36.9082 72.5327 36.9762 72.4534 37.0555 72.3741C37.1348 72.2947 37.5087 72.1021 37.8826 71.9548C38.4037 71.7281 38.7663 71.6602 39.4121 71.6602V71.6602ZM37.9052 75.6604C37.8599 75.7623 37.8259 75.9777 37.8259 76.1363C37.8259 76.295 37.8599 76.4989 37.9052 76.6009C37.9619 76.7029 38.1318 76.8616 38.3018 76.9409C38.483 77.0315 38.8682 77.0995 39.1855 77.0995C39.5027 77.0995 39.9106 77.0202 40.0918 76.9295C40.2731 76.8389 40.5337 76.6236 40.6583 76.4536C40.8169 76.2496 40.8963 75.9663 40.8849 75.6604V75.1731C39.1515 75.1844 38.5284 75.2411 38.3358 75.3317C38.1545 75.4111 37.9619 75.5584 37.9052 75.6604Z" fill="#2B3D52"/>
<path d="M26.7559 76.5896C26.5973 76.2156 26.552 75.7284 26.518 73.9039L26.4727 71.6602H27.6283L27.6849 76.2156L28.1155 76.6009C28.5007 76.9522 28.5913 76.9862 29.2484 76.9862C29.7469 76.9862 30.0528 76.9182 30.3247 76.7596C30.5173 76.6349 30.7779 76.3629 30.8912 76.1703C31.0498 75.853 31.0838 75.479 31.0951 71.6602H32.2734V78.0061H31.707C31.1518 78.0061 31.1405 77.9948 31.1405 77.3262L30.5173 77.6661C29.9962 77.9494 29.7696 78.0061 29.1351 78.0061C28.6253 78.0061 28.2061 77.9268 27.9115 77.7908C27.6623 77.6775 27.345 77.4622 27.2091 77.3148C27.0731 77.1675 26.8692 76.8389 26.7559 76.5896Z" fill="#2B3D52"/>
<path fill-rule="evenodd" clip-rule="evenodd" d="M21.4645 71.6828C22.2689 71.7168 22.4502 71.7621 23.5491 72.4534V72.0568C23.5491 71.6602 23.5491 71.6602 24.5575 71.6602L24.5348 75.0258C24.5122 78.2214 24.5008 78.4254 24.2742 78.856C24.1383 79.1053 23.8777 79.4453 23.6738 79.6152C23.4812 79.7965 23.028 80.0119 22.6768 80.1138C22.2009 80.2498 21.7817 80.2838 21.1699 80.2385C20.7054 80.2045 20.0936 80.0912 19.8104 79.9892C19.5271 79.8872 19.1306 79.6832 18.938 79.5246C18.6434 79.3093 18.5868 79.2073 18.6661 79.0486C18.7227 78.9466 18.8473 78.754 18.938 78.6293C19.0966 78.4027 19.0966 78.4027 19.4251 78.652C19.6064 78.788 19.9803 78.9806 20.2635 79.0713C20.5468 79.1733 21.1019 79.2526 21.5098 79.2526C21.9743 79.2526 22.3935 79.1846 22.6428 79.0486C22.9033 78.924 23.1299 78.6747 23.2999 78.346C23.4472 78.0514 23.5491 77.6321 23.5491 76.8729L23.2092 77.1562C23.028 77.3148 22.5748 77.5188 22.2236 77.6321C21.6684 77.7794 21.4532 77.7908 20.83 77.6888C20.4222 77.6095 19.8783 77.4282 19.6177 77.2695C19.3458 77.1109 18.9833 76.7482 18.7907 76.4423C18.5981 76.1476 18.3941 75.7057 18.3262 75.4564C18.2582 75.2071 18.2355 74.7085 18.2695 74.3458C18.3035 73.9946 18.4395 73.5073 18.5528 73.2693C18.6774 73.0427 18.938 72.6914 19.1532 72.4874C19.3572 72.2947 19.7537 72.0228 20.0369 71.8868C20.4448 71.7055 20.7281 71.6602 21.4645 71.6828ZM19.9463 73.1673C19.799 73.3033 19.6064 73.5526 19.5158 73.7226C19.4251 73.9039 19.3572 74.3345 19.3572 74.6858C19.3572 75.1731 19.4365 75.4677 19.6404 75.819C19.833 76.1476 20.0823 76.3743 20.4108 76.5329C20.6714 76.6576 21.0906 76.7596 21.3399 76.7596C21.5891 76.7596 21.9743 76.7029 22.1896 76.6462C22.4048 76.5783 22.7107 76.4196 22.8467 76.2723C22.994 76.1363 23.2206 75.8303 23.3339 75.5924C23.4472 75.3657 23.5491 74.9578 23.5491 74.6858C23.5491 74.4252 23.4472 73.9946 23.3225 73.7226C23.1866 73.4506 22.9147 73.122 22.6768 72.9633C22.4162 72.7934 22.0083 72.6574 21.6797 72.6234C21.3172 72.5894 20.9546 72.6234 20.6601 72.7367C20.4108 72.8274 20.0823 73.02 19.9463 73.1673Z" fill="#2B3D52"/>
<path fill-rule="evenodd" clip-rule="evenodd" d="M14.4087 71.6602C14.8279 71.6602 15.3378 71.7281 15.5417 71.8075C15.7343 71.8868 16.0855 72.0908 16.3008 72.2494C16.5161 72.4081 16.8446 72.816 17.0259 73.156C17.2412 73.5526 17.3771 73.9946 17.4904 75.1731L12.4714 75.2297L12.63 75.683C12.7093 75.9323 12.9472 76.295 13.1512 76.4876C13.3891 76.7029 13.7403 76.8842 14.0915 76.9635C14.3974 77.0315 14.76 77.0655 14.8846 77.0429C15.0092 77.0202 15.2471 76.9749 15.4284 76.9409C15.5984 76.9069 15.9043 76.7256 16.4707 76.2043L17.1505 76.8729L16.8106 77.2128C16.618 77.4055 16.2102 77.6661 15.9043 77.7908C15.4397 77.9948 15.1678 78.0288 14.4314 77.9834C13.7176 77.9494 13.4117 77.8814 13.0152 77.6548C12.732 77.4848 12.3354 77.1562 12.1315 76.9182C11.9276 76.6802 11.6783 76.2156 11.5877 75.9097C11.4517 75.513 11.4177 75.1051 11.4517 74.5498C11.4857 74.0739 11.599 73.5753 11.735 73.3033C11.8596 73.054 12.1428 72.68 12.3468 72.4647C12.562 72.2494 12.9359 71.9888 13.1851 71.8755C13.4797 71.7395 13.9102 71.6602 14.4087 71.6602V71.6602ZM13.2531 73.0087C13.0379 73.1673 12.766 73.5073 12.664 73.7566C12.5507 74.0059 12.4827 74.2439 12.5167 74.3005C12.5394 74.3458 13.4344 74.3798 14.4881 74.3798C15.7003 74.3798 16.4141 74.3345 16.4141 74.2665C16.4141 74.2099 16.3461 73.9832 16.2555 73.7906C16.1762 73.5866 15.9609 73.2806 15.7796 73.1107C15.5984 72.9407 15.3151 72.748 15.1338 72.6914C14.9639 72.6234 14.658 72.5781 14.4541 72.5781C14.2615 72.5894 13.9896 72.6234 13.8649 72.646C13.7403 72.68 13.4684 72.8387 13.2531 73.0087Z" fill="#2B3D52"/>
<path d="M7.57422 78.0061V74.8331V71.6602H8.08405C8.59389 71.6602 8.59389 71.6602 8.59389 72.4534L9.11505 72.0908C9.52292 71.7961 9.77217 71.7055 10.8598 71.6602V72.68H10.4406C10.2027 72.68 9.82882 72.7707 9.61355 72.884C9.38696 72.986 9.11505 73.2693 8.96776 73.5299C8.72984 73.9492 8.70718 74.1192 8.70718 78.0061H7.57422Z" fill="#2B3D52"/>
<path d="M121.041 70.9736L121.947 70.1351L122.854 69.2965L123.59 69.2852C124.213 69.2852 124.293 69.3078 124.157 69.4438C124.066 69.5231 123.579 69.9084 123.08 70.2937C122.242 70.9396 122.129 70.9963 121.041 70.9736Z" fill="#2B3D52"/>
<path d="M70.761 69.9954C70.8856 69.7461 71.1009 69.5194 71.3048 69.4401C71.4861 69.3608 71.7693 69.3268 71.9279 69.3608C72.0865 69.3948 72.4038 69.5648 72.6304 69.7461C72.8683 69.9274 73.1628 70.0747 73.2875 70.0747C73.4385 70.0747 73.5518 69.9614 73.6274 69.7347C73.718 69.4628 73.8086 69.3948 74.0805 69.3948C74.3411 69.3948 74.4204 69.4401 74.4204 69.6214C74.4204 69.7461 74.3411 70.0294 74.2505 70.2447C74.1599 70.46 73.9786 70.698 73.854 70.7546C73.7293 70.8113 73.4574 70.8679 73.2648 70.8679C73.0269 70.8679 72.7323 70.7546 72.4378 70.528C72.1885 70.3467 71.8713 70.188 71.7353 70.188C71.5427 70.188 71.4521 70.2787 71.3954 70.528C71.3161 70.8226 71.2481 70.8679 70.9422 70.8679C70.6477 70.8679 70.5684 70.8226 70.5684 70.6413C70.5684 70.5166 70.659 70.222 70.761 69.9954Z" fill="#2B3D52"/>
<path d="M139.225 78.0109V73.5914V69.1719H140.358V78.0109H139.225Z" fill="#2B3D52"/>
<path d="M104.32 69.8631C104.308 69.6252 104.376 69.4778 104.569 69.3419C104.716 69.2512 104.943 69.1719 105.067 69.1719C105.192 69.1719 105.385 69.2625 105.498 69.3759C105.611 69.4892 105.702 69.7271 105.69 69.9311C105.69 70.1918 105.611 70.3617 105.43 70.4751C105.294 70.5657 105.09 70.645 104.977 70.645C104.875 70.645 104.682 70.543 104.557 70.4184C104.433 70.2937 104.32 70.0444 104.32 69.8631Z" fill="#2B3D52"/>
<path fill-rule="evenodd" clip-rule="evenodd" d="M91.6413 69.1719H92.661V78.0109L92.1738 77.9769C91.7206 77.9542 91.698 77.9315 91.6413 77.2176L91.0522 77.5916C90.565 77.8975 90.3384 77.9655 89.67 77.9995C89.0128 78.0335 88.7523 77.9882 88.2538 77.7729C87.8686 77.6029 87.472 77.3083 87.2001 76.991C86.9622 76.7077 86.6903 76.2544 86.5996 75.9711C86.4977 75.6878 86.4297 75.1665 86.4297 74.8039C86.4297 74.4526 86.5317 73.8973 86.645 73.5687C86.7922 73.1834 87.0528 72.7981 87.3587 72.5035C87.6306 72.2542 88.0725 71.9596 88.3557 71.8462C88.7183 71.6989 89.0922 71.6536 89.67 71.6876C90.3384 71.7102 90.565 71.7782 91.6413 72.4582V69.1719ZM88.0612 73.2741C87.8346 73.512 87.6646 73.8633 87.5853 74.2373C87.4833 74.7019 87.4833 74.9739 87.5853 75.4272C87.6533 75.7558 87.8459 76.1751 88.0045 76.3564C88.1631 76.5377 88.4577 76.753 88.639 76.855C88.8202 76.9456 89.2394 77.025 89.5453 77.025C89.8739 77.025 90.3044 76.9343 90.5537 76.8097C90.8029 76.685 91.1315 76.3904 91.2901 76.1524C91.5054 75.8238 91.596 75.5065 91.63 75.0192C91.664 74.4639 91.6187 74.226 91.4034 73.7727C91.2448 73.4327 90.9729 73.1041 90.735 72.9454C90.5197 72.8095 90.1118 72.6621 89.8286 72.6281C89.5113 72.5941 89.1488 72.6395 88.8656 72.7301C88.6163 72.8321 88.2538 73.0701 88.0612 73.2741Z" fill="#2B3D52"/>
<path d="M48.2266 69.9085C48.2379 69.7271 48.3285 69.4778 48.4305 69.3759C48.5325 69.2625 48.7251 69.1719 48.861 69.1719C48.997 69.1719 49.2122 69.2512 49.3482 69.3419C49.5181 69.4438 49.6088 69.6252 49.6088 69.8291C49.6088 69.9991 49.5521 70.2258 49.4728 70.3277C49.3935 70.4297 49.2009 70.5544 49.0423 70.5884C48.8535 70.6337 48.6684 70.5884 48.4871 70.4524C48.3134 70.3164 48.2266 70.1351 48.2266 69.9085Z" fill="#2B3D52"/>
<path d="M34.1992 78.0109V73.5914V69.1719H35.2189V78.0109H34.1992Z" fill="#2B3D52"/>
<path d="M27.9688 63.5648C27.9763 63.2928 28.0707 63.0662 28.252 62.8849C28.4559 62.6696 28.6485 62.6016 28.9884 62.6016C29.3623 62.6016 29.4869 62.6582 29.7362 62.9642C29.9741 63.2702 30.0194 63.4175 29.9628 63.7348C29.9288 63.9501 29.7702 64.2447 29.6115 64.3807C29.4529 64.528 29.181 64.6413 28.9884 64.6413C28.7618 64.6413 28.5352 64.528 28.3086 64.3014C28.0594 64.0521 27.9688 63.8594 27.9688 63.5648Z" fill="#2B3D52"/>
<path fill-rule="evenodd" clip-rule="evenodd" d="M139.144 51.3824L142.112 51.3711L142.384 51.9717C142.532 52.3003 143.823 55.2013 145.251 58.4083C146.69 61.6152 147.879 64.3123 147.902 64.3916C147.936 64.4936 147.585 64.5162 144.752 64.4709L143.585 61.6832L137.637 61.6946L137.433 62.1252C137.309 62.3518 137.048 62.9864 136.448 64.5276H134.895C133.694 64.5276 133.343 64.4936 133.377 64.3916C133.4 64.3123 134.703 61.3546 136.278 57.819L139.144 51.3824ZM139.643 56.8218C139.246 57.785 138.827 58.7596 138.725 58.9975L138.544 59.4282C141.704 59.4282 142.622 59.3942 142.622 59.3715C142.622 59.3375 142.192 58.2496 141.648 56.9578C141.115 55.6659 140.674 54.5894 140.651 54.5667C140.64 54.5327 140.572 54.6347 140.504 54.7934C140.436 54.9407 140.05 55.8472 139.643 56.8218Z" fill="#2B3D52"/>
<path fill-rule="evenodd" clip-rule="evenodd" d="M121.347 51.3555L124.814 51.4121C127.646 51.4461 128.417 51.5028 128.972 51.6614C129.346 51.7634 129.946 52.0127 130.32 52.2054C130.683 52.4093 131.204 52.806 131.476 53.1006C131.747 53.4066 132.11 53.9392 132.28 54.2905C132.563 54.8797 132.597 55.0724 132.597 56.1942C132.597 57.2934 132.563 57.5201 132.303 58.064C132.144 58.404 131.815 58.9139 131.555 59.1972C131.306 59.4805 130.864 59.8318 130.569 59.9905C130.286 60.1491 130.048 60.2964 130.048 60.3304C130.037 60.3644 130.637 61.2483 131.374 62.3135C132.11 63.3787 132.756 64.308 132.801 64.376C132.858 64.4893 132.529 64.5233 129.652 64.5346L127.159 60.9537L124.383 60.897V64.5233H121.324L121.347 51.3555ZM124.383 58.404C126.887 58.404 127.816 58.3473 128.065 58.2793C128.315 58.2113 128.7 57.962 128.926 57.7354C129.176 57.4861 129.402 57.1235 129.482 56.8175C129.595 56.4322 129.595 56.1602 129.504 55.6843C129.402 55.197 129.278 54.9704 128.949 54.6531C128.711 54.4264 128.315 54.1885 128.065 54.1091C127.816 54.0412 126.887 53.9845 126.003 53.9845H124.383V58.404Z" fill="#2B3D52"/>
<path d="M106.641 60.4484C106.528 59.9045 106.482 58.6126 106.482 55.553V51.3828H109.541L109.575 55.655C109.598 59.3832 109.632 59.9951 109.802 60.4144C109.904 60.6864 110.097 61.0377 110.221 61.2077C110.346 61.389 110.663 61.6496 110.924 61.8083C111.343 62.0576 111.547 62.0916 112.442 62.0916C113.394 62.0916 113.507 62.0689 114.028 61.7516C114.447 61.4796 114.662 61.2417 115.263 60.0631L115.297 51.3828H118.379V55.3717C118.367 58.3633 118.333 59.5985 118.209 60.2784C118.118 60.7771 117.891 61.491 117.721 61.8649C117.54 62.2389 117.144 62.8055 116.838 63.1228C116.532 63.4401 115.965 63.8594 115.569 64.052C115.184 64.256 114.549 64.494 114.164 64.5846C113.767 64.6753 113.02 64.7546 112.487 64.7546C111.955 64.7546 111.173 64.6753 110.731 64.5846C110.289 64.494 109.655 64.2787 109.315 64.1087C108.975 63.9387 108.408 63.5194 108.057 63.1794C107.695 62.8055 107.298 62.2616 107.117 61.8649C106.936 61.491 106.72 60.8564 106.641 60.4484Z" fill="#2B3D52"/>
<path d="M93.793 53.9892V52.686V51.3828H105.236V53.9892H101.044V64.528H97.9849V53.9892H93.793Z" fill="#2B3D52"/>
<path d="M89.1504 64.528V57.9554V51.3828H92.2094V64.528H89.1504Z" fill="#2B3D52"/>
<path fill-rule="evenodd" clip-rule="evenodd" d="M75.4375 51.3828H78.3266C79.9127 51.3828 81.6122 51.4395 82.0993 51.4961C82.5752 51.5641 83.2776 51.7228 83.6515 51.8588C84.0254 51.9834 84.6032 52.278 84.9431 52.5047C85.283 52.7313 85.7248 53.1393 85.9287 53.4226C86.1327 53.7059 86.4046 54.2271 86.5405 54.5898C86.6878 55.0204 86.7671 55.519 86.7671 56.1083C86.7671 56.5955 86.6878 57.2641 86.5859 57.6154C86.4839 57.9554 86.28 58.42 86.144 58.6353C86.0081 58.8506 85.6568 59.2472 85.3623 59.5079C85.079 59.7798 84.6825 60.0745 84.5012 60.1651C84.2859 60.2784 84.1953 60.3918 84.2406 60.4711C84.2859 60.5504 84.8411 61.355 85.4642 62.2616C86.0987 63.1681 86.6992 64.0407 86.9937 64.528H83.7648L81.2723 60.9017H78.4965V64.528H75.4375V51.3828ZM78.4965 58.4087C82.1107 58.352 82.2013 58.3407 82.7225 58.0347C83.119 57.8081 83.3116 57.5928 83.5042 57.1848C83.6855 56.7769 83.7308 56.5162 83.6855 56.0289C83.6628 55.689 83.5269 55.2244 83.4022 55.0091C83.2663 54.7938 82.9377 54.4878 82.6658 54.3291C82.2126 54.0685 82.054 54.0458 80.3432 54.0118L78.5192 53.9665L78.4965 58.4087Z" fill="#2B3D52"/>
<path d="M37.373 64.528V57.9554V51.3828H47.2298V53.8759H40.432V56.7089H46.4368V59.0886H40.432V62.0349H47.4564V64.528H37.373Z" fill="#2B3D52"/>
<path fill-rule="evenodd" clip-rule="evenodd" d="M15.6418 51.3555L18.7121 51.4235C20.9554 51.4801 21.9751 51.5481 22.4736 51.6728C22.8475 51.7748 23.3573 51.9561 23.6065 52.092C23.8558 52.2167 24.309 52.5567 24.6035 52.84C24.9094 53.1233 25.2947 53.6445 25.4533 53.9845C25.7365 54.5511 25.7592 54.7324 25.7592 55.9109C25.7592 57.1575 25.7365 57.2595 25.3966 57.9847C25.1247 58.5286 24.8641 58.8686 24.4789 59.1632C24.1843 59.4012 23.7198 59.6958 23.4593 59.8205C23.1987 59.9451 22.9721 60.0698 22.9721 60.1038C22.9721 60.1378 23.6292 61.0783 24.4336 62.2002C25.2267 63.3221 25.9178 64.308 25.9631 64.376C26.0198 64.4893 25.8611 64.5233 24.5129 64.5233L21.5785 60.3871L17.0353 60.4437L16.9787 64.5233H15.6191L15.6418 51.3555ZM16.9674 55.9789L16.9787 59.1972C21.6012 59.1179 21.8504 59.0952 22.4736 58.8573C22.9041 58.6873 23.3346 58.404 23.6405 58.098C23.9804 57.7467 24.173 57.4294 24.2976 56.9535C24.4223 56.5342 24.4676 56.0583 24.4336 55.6276C24.3996 55.231 24.2637 54.7097 24.105 54.3811C23.9351 54.0298 23.6519 53.6899 23.3233 53.4519C23.0401 53.2592 22.5642 53.0099 22.247 52.8966C21.8165 52.7493 21.1367 52.6926 19.4146 52.6587C18.1683 52.6247 17.1033 52.636 17.0467 52.6926C16.99 52.738 16.956 54.1545 16.9674 55.9789Z" fill="#2B3D52"/>
<path fill-rule="evenodd" clip-rule="evenodd" d="M0.231644 51.3555L3.4266 51.4121C5.17137 51.4575 6.87081 51.5368 7.17671 51.5934C7.49394 51.6501 7.96979 51.7861 8.25303 51.8881C8.53627 51.9901 9.06876 52.2394 9.43131 52.432C9.80519 52.636 10.3943 53.0779 10.7342 53.4292C11.1194 53.8032 11.5386 54.3924 11.7992 54.9024C12.0258 55.367 12.2977 56.0923 12.3883 56.5342C12.479 56.9762 12.5583 57.6334 12.5583 58.0074C12.5583 58.3813 12.479 59.0386 12.3883 59.4805C12.2977 59.9225 12.0598 60.6024 11.8559 61.0103C11.6293 61.4976 11.2214 62.0189 10.7002 62.5515C10.1111 63.1408 9.66924 63.4581 9.0461 63.764C8.58159 63.9793 7.8225 64.24 7.38065 64.342C6.73486 64.4893 5.87381 64.5233 0.208984 64.5233L0.231644 51.3555ZM1.54588 58.03L1.56854 63.2768C5.74918 63.2768 6.57624 63.2314 7.12007 63.1068C7.5166 63.0048 8.15106 62.7668 8.51361 62.5628C8.88749 62.3702 9.43131 61.9396 9.73721 61.6109C10.0431 61.2823 10.451 60.6704 10.6549 60.2511C10.9835 59.5712 11.0288 59.3445 11.0628 58.2907C11.1081 57.3274 11.0741 56.9535 10.8815 56.3076C10.7342 55.8203 10.451 55.2537 10.1451 54.8344C9.83918 54.4151 9.38599 53.9732 8.92148 53.6672C8.52494 53.3952 7.85649 53.0779 7.45995 52.9533C6.83682 52.7493 6.33832 52.704 4.21968 52.67C2.84879 52.6473 1.68184 52.6587 1.62519 52.704C1.56854 52.7493 1.53455 55.1404 1.54588 58.03Z" fill="#2B3D52"/>
<path d="M64.393 52.0943C64.7669 51.8904 65.458 51.6297 65.9225 51.5051C66.5117 51.3464 67.1461 51.2784 68.0185 51.2784C68.7436 51.2671 69.5594 51.3464 69.9672 51.4371C70.3638 51.5277 71.0209 51.777 71.4401 51.9923C71.8706 52.1963 72.4824 52.6043 72.7996 52.8989C73.1282 53.1822 73.4001 53.4542 73.4001 53.4995C73.4001 53.5562 72.9696 53.9868 71.4741 55.3466L71.0435 54.95C70.8169 54.7234 70.3411 54.4061 70.0012 54.2361C69.4347 53.9641 69.2535 53.9301 68.1318 53.9301C66.9196 53.9301 66.8629 53.9415 66.1605 54.3267C65.7639 54.542 65.2314 54.95 64.9935 55.2333C64.7556 55.5166 64.4497 56.0265 64.3137 56.3665C64.1438 56.8198 64.0758 57.2504 64.0758 57.953C64.0758 58.5762 64.1438 59.1089 64.2797 59.4828C64.3817 59.7888 64.6423 60.2761 64.8462 60.5594C65.0502 60.8427 65.458 61.2279 65.7639 61.4319C66.0698 61.6246 66.625 61.8739 66.9989 61.9759C67.4634 62.1118 67.9279 62.1572 68.4717 62.1232C68.9815 62.0892 69.4914 61.9759 69.8879 61.7945C70.2278 61.6359 70.7263 61.3186 70.9869 61.092C71.4061 60.7293 71.4967 60.6953 71.6893 60.8087C71.8026 60.888 72.2445 61.2846 73.4228 62.4291L73.1962 62.7124C73.0829 62.8711 72.6297 63.2337 72.1992 63.5283C71.7346 63.8456 71.0322 64.1856 70.4544 64.3782C69.582 64.6615 69.3441 64.6955 67.9619 64.6842C66.591 64.6842 66.3417 64.6502 65.526 64.3669C65.0275 64.1969 64.2684 63.8116 63.8379 63.5283C63.4074 63.2337 62.8296 62.7351 62.5576 62.4291C62.2857 62.1118 61.9232 61.5792 61.7306 61.2393C61.5493 60.8993 61.3 60.2081 61.1641 59.7094C61.0395 59.1995 60.9375 58.4516 60.9375 58.0096C60.9375 57.5677 61.0168 56.8651 61.1074 56.4232C61.2094 55.9812 61.4473 55.3013 61.6513 54.8933C61.8892 54.4061 62.2971 53.8621 62.8635 53.3069C63.362 52.8082 63.9965 52.2983 64.393 52.0943Z" fill="#2B3D52"/>
<path d="M51.1464 51.9777C51.5203 51.7737 52.1207 51.5358 52.4946 51.4451C53.0045 51.3091 53.6163 51.2751 54.8738 51.3091C56.0635 51.3431 56.7659 51.4111 57.1964 51.5471C57.5363 51.6491 58.1141 51.8757 58.4767 52.0344C58.8392 52.2044 59.1338 52.3743 59.1225 52.4197C59.1225 52.4763 58.9412 52.9863 58.7033 53.5529C58.4767 54.1308 58.2727 54.6294 58.2614 54.6634C58.2387 54.6974 57.9555 54.5841 57.6269 54.4254C57.2984 54.2555 56.7206 54.0288 56.3467 53.9155C55.9162 53.7908 55.293 53.7115 54.6473 53.7115C54.0921 53.7115 53.4463 53.7682 53.231 53.8475C53.0158 53.9155 52.6759 54.1308 52.4946 54.3235C52.234 54.5954 52.1547 54.7881 52.1547 55.1167C52.1547 55.4227 52.234 55.638 52.438 55.8419C52.5966 56.0119 52.9478 56.2159 53.231 56.3066C53.5143 56.3972 54.364 56.6239 55.1344 56.8165C55.8935 56.9978 56.8112 57.2698 57.1738 57.3944C57.525 57.5304 57.9782 57.7457 58.1594 57.8704C58.3407 57.995 58.6466 58.233 58.8279 58.3916C59.0092 58.5503 59.2697 58.9356 59.417 59.2529C59.621 59.6722 59.6889 60.0235 59.6889 60.6127C59.6889 61.0773 59.6096 61.6439 59.4963 61.9726C59.3717 62.3239 59.0771 62.7771 58.7259 63.1398C58.386 63.5024 57.8875 63.8877 57.4797 64.0803C57.1058 64.2616 56.4147 64.4883 55.9502 64.5903C55.327 64.7262 54.7492 64.7602 53.7409 64.7149C52.9251 64.6809 52.0188 64.5563 51.475 64.4203C50.9764 64.2843 50.1947 64.001 49.7528 63.7857C49.2997 63.5704 48.9258 63.3211 48.9258 63.2418C48.9258 63.1738 49.1071 62.6752 49.3336 62.1425C49.5489 61.6099 49.7642 61.1453 49.8095 61.1C49.8548 61.0547 50.2967 61.2133 50.7952 61.4626C51.2937 61.7119 52.0414 61.9952 52.472 62.0859C52.8912 62.1765 53.6502 62.2559 54.1714 62.2559C54.6812 62.2559 55.293 62.1992 55.531 62.1425C55.7576 62.0746 56.1088 61.9046 56.29 61.7459C56.5733 61.508 56.6299 61.3833 56.6299 60.9527C56.6299 60.5107 56.5733 60.3974 56.2674 60.1481C56.0635 59.9781 55.7689 59.7968 55.6103 59.7402C55.4517 59.6835 54.5906 59.4342 53.6842 59.1962C52.7779 58.9583 51.7355 58.6523 51.3617 58.505C50.8745 58.3237 50.5006 58.0744 50.0587 57.6211C49.6169 57.1791 49.379 56.8278 49.277 56.4765C49.1977 56.1932 49.1297 55.604 49.141 55.1734C49.1524 54.6068 49.2204 54.2215 49.413 53.8135C49.5602 53.4962 49.8548 53.0429 50.0814 52.7936C50.2967 52.5443 50.7838 52.1817 51.1464 51.9777Z" fill="#2B3D52"/>
<path fill-rule="evenodd" clip-rule="evenodd" d="M66.2859 0.5L88.2994 0.55666L96.6606 15.175C101.272 23.2207 105.056 29.8726 105.09 29.9632C105.124 30.0539 103.662 32.7169 98.3261 41.9752H44.2837L44.0571 41.6012C43.9325 41.4086 43.7172 41.0346 43.332 40.332L44.0005 39.1422C44.363 38.4849 44.8729 37.6237 45.1334 37.2157C45.394 36.8078 47.1841 33.7255 49.1215 30.3599C51.0588 26.9943 52.7243 24.0706 52.8263 23.8666C52.9849 23.538 53.0075 22.6541 53.0075 6.39265H62.8643L63.1249 5.96203C63.2722 5.73539 64.0426 4.40955 64.8357 3.01571L66.2859 0.5ZM66.909 5.74672C66.2519 6.87993 61.72 14.7783 56.8256 23.2887L47.9319 38.7569C54.2651 38.8022 55.1375 38.7796 55.2395 38.6662C55.3188 38.5869 59.8506 30.7452 65.3115 21.2489C70.7724 11.7414 75.2703 3.89961 75.2929 3.82028C75.3269 3.70696 74.5565 3.6843 71.7128 3.6843H68.0986L66.909 5.74672ZM68.9937 21.1356C63.4761 30.7338 58.9443 38.6322 58.9329 38.6889C58.9216 38.7569 60.2925 38.8022 62.5924 38.8022H66.2746C81.6715 11.968 86.2034 4.06959 86.2827 3.9336L86.4413 3.67297L79.0204 3.6843L68.9937 21.1356ZM84.6172 13.1352C94.9159 31.0511 97.9069 36.2639 97.9182 36.2865C97.9296 36.2978 98.734 34.938 99.7197 33.2495C100.705 31.5724 101.487 30.1219 101.476 30.0426C101.464 29.9519 98.5074 24.7279 94.9159 18.4273C91.3244 12.1153 88.3334 6.95925 88.2767 6.95925C88.2087 6.95925 87.359 8.35309 86.3847 10.0416L84.6172 13.1352ZM56.0779 13.8491C56.0779 16.3422 56.1119 18.076 56.1798 18.008C56.2252 17.9513 57.3355 16.0589 58.627 13.8151C59.9186 11.5714 60.9949 9.7016 61.0176 9.65627C61.0403 9.61094 59.9413 9.56561 58.5704 9.56561H56.0779V13.8491ZM70.3306 38.043L69.9 38.8136C93.2731 38.8136 95.6183 38.7909 95.5957 38.6662C95.573 38.5869 92.7406 33.6008 89.2851 27.5835C85.8295 21.5776 82.9518 16.6028 82.8838 16.5235C82.7932 16.4215 81.2637 18.9825 76.7545 26.8243C73.4575 32.5696 70.5572 37.6124 70.3306 38.043Z" fill="url(#paint0_linear_67_1037)"/>
<path d="M64.2469 72.4874C64.4508 72.2947 64.8474 72.0228 65.1306 71.8981C65.4705 71.7395 65.8784 71.6602 66.3769 71.6602C66.7847 71.6602 67.3172 71.7281 67.5665 71.8075C67.8157 71.8755 68.2463 72.1588 69.0393 72.918L68.6995 73.19C68.5182 73.3373 68.3256 73.4619 68.2803 73.4733C68.2236 73.4733 68.031 73.3146 67.8497 73.1333C67.6685 72.9407 67.2946 72.7367 67.034 72.6687C66.7621 72.6007 66.3656 72.578 66.1503 72.612C65.935 72.646 65.5725 72.7934 65.3572 72.9293C65.142 73.0767 64.87 73.3486 64.7341 73.5299C64.6095 73.7113 64.4622 74.0852 64.4169 74.3458C64.3715 74.6178 64.3715 75.0484 64.4169 75.3091C64.4622 75.581 64.5981 75.9437 64.7341 76.125C64.8587 76.3063 65.0853 76.5556 65.2439 76.6689C65.4025 76.7822 65.7424 76.9295 66.0143 76.9862C66.3542 77.0655 66.6488 77.0542 67.0227 76.9522C67.3172 76.8842 67.6911 76.6802 67.8611 76.4989C68.031 76.3289 68.2123 76.193 68.2689 76.193C68.3142 76.193 68.5069 76.3063 69.0167 76.7029L68.6768 77.0995C68.4955 77.3148 68.1443 77.5868 67.8951 77.7115C67.6571 77.8248 67.2493 77.9494 67.0113 77.9948C66.7621 78.0288 66.5468 78.1307 66.5242 78.1987C66.5128 78.2781 66.5921 78.3687 66.7168 78.4027C66.8414 78.4367 67.0453 78.5727 67.17 78.7087C67.3059 78.856 67.3965 79.128 67.3965 79.3319C67.3965 79.5359 67.3399 79.8079 67.2833 79.9325C67.2266 80.0572 67.0113 80.2385 66.8301 80.3292C66.6488 80.4198 66.2976 80.4991 66.0597 80.4991C65.8331 80.4991 65.4705 80.4538 65.2666 80.3858C64.9607 80.2952 64.9154 80.2272 64.972 80.0119C65.006 79.8759 65.074 79.7172 65.1193 79.6719C65.1533 79.6152 65.3685 79.6266 65.5838 79.6719C65.7991 79.7286 66.0936 79.7512 66.2296 79.7399C66.3769 79.7172 66.5128 79.6266 66.5468 79.5359C66.5808 79.4453 66.5808 79.2866 66.5468 79.196C66.5128 79.1053 66.2862 78.992 66.037 78.9353C65.6518 78.8673 65.5951 78.822 65.6518 78.6293C65.6858 78.5047 65.7311 78.3121 65.7651 78.1987C65.7877 78.0854 65.7311 77.9834 65.6178 77.9381C65.5045 77.9041 65.2099 77.7908 64.972 77.6888C64.7228 77.5755 64.3262 77.2695 64.0883 76.9862C63.8504 76.7029 63.5671 76.2156 63.4652 75.9097C63.3405 75.513 63.3065 75.0938 63.3405 74.5498C63.3745 74.0625 63.4878 73.5866 63.6351 73.3033C63.7597 73.054 64.0316 72.6914 64.2469 72.4874Z" fill="#2B3D52"/>
<path d="M0.29026 73.8659C0.426216 73.6053 0.652809 73.39 0.947379 73.2427C1.19663 73.1293 1.4912 73.0273 1.59317 73.0273C1.70647 73.0273 1.96705 73.0953 2.15965 73.186C2.36358 73.2653 2.65816 73.4806 2.81677 73.6506C3.00937 73.8546 3.11134 74.1152 3.14533 74.4778C3.16799 74.8178 3.12267 75.1464 2.99804 75.3844C2.89608 75.577 2.64683 75.849 2.45422 75.9737C2.23896 76.0983 1.87641 76.2003 1.62716 76.2003C1.37791 76.2003 1.01536 76.0983 0.811424 75.9737C0.60749 75.849 0.358238 75.5997 0.267601 75.4071C0.176964 75.2258 0.0976562 74.8858 0.0976562 74.6705C0.0976562 74.4552 0.188293 74.0926 0.29026 73.8659Z" fill="#2B3D52"/>
<defs>
<linearGradient id="paint0_linear_67_1037" x1="105.126" y1="42.0297" x2="43.3373" y2="0.491565" gradientUnits="userSpaceOnUse">
<stop stop-color="#6CBE50"/>
<stop offset="1" stop-color="#FFF3C4"/>
</linearGradient>
</defs>
</svg>
